<?xml version="1.0" encoding="iso-8859-1"?>
<!-- Uploaded to: SVG Repo, www.svgrepo.com, Generator: SVG Repo Mixer Tools -->
<svg fill="#000000" version="1.1" id="Layer_1" xmlns="http://www.w3.org/2000/svg" xmlns:xlink="http://www.w3.org/1999/xlink" 
	 viewBox="0 0 496 496" xml:space="preserve">
<g>
	<g>
		<g>
			<path d="M432,336h-10.84c16.344-13.208,26.84-33.392,26.84-56v-32c0-30.872-25.128-56-56-56h-32c-8.592,0-16.712,2.008-24,5.48
				V128h-16V96h16V0H0v96h16v32H0v96h16v32H0v96h277.808C264.472,363.736,256,380.88,256,400v96h56h8h112h8h56v-96
				C496,364.712,467.288,336,432,336z M422.584,371.328l-32.472,13.92L412.28,352h5.472L422.584,371.328z M358.944,352h34.112
				L376,377.576L358.944,352z M361.88,385.248l-32.472-13.92L334.24,352H336h3.72L361.88,385.248z M432.008,280
				C432,310.872,406.872,336,376,336s-56-25.128-56-56h37.424c14.12,0,27.392-5.504,37.368-15.48l4.128-4.128
				c8.304,10.272,20.112,16.936,33.088,18.92V280z M360,208h32c22.056,0,40,17.944,40,40v15.072
				c-9.168-2.032-17.32-7.48-22.656-15.48l-8.104-12.152l-17.768,17.768c-6.96,6.96-16.208,10.792-26.048,10.792H320v-16
				C320,225.944,337.944,208,360,208z M16,16h304v64H16V16z M272,112v16h-16v-16h-16v16h-16v-16h-16v16h-16v-16h-16v16h-16v-16h-16
				v16h-16v-16h-16v16H96v-16H80v16H64v-16H48v16H32V96h272v32h-16v-16H272z M16,144h304v64H16V144z M272,240v16h-16v-16h-16v16h-16
				v-16h-16v16h-16v-16h-16v16h-16v-16h-16v16h-16v-16h-16v16H96v-16H80v16H64v-16H48v16H32v-32h272v24v8h-16v-16H272z M16,336v-64
				h288v8c0,17.096,6.016,32.792,16,45.16V336H16z M304,480h-32v-32h32V480z M480,480h-32v-32h32V480z M480,432h-32v-32h-16v80H320
				v-80h-16v32h-32v-32c0-25.704,20.32-46.688,45.728-47.888l-7.144,28.56L376,408.704l65.416-28.032l-7.144-28.56
				C459.68,353.312,480,374.296,480,400V432z"/>
			<rect x="416" y="160" width="16" height="16"/>
			<rect x="416" y="128" width="16" height="16"/>
			<rect x="416" y="96" width="16" height="16"/>
			<rect x="384" y="96" width="16" height="16"/>
			<rect x="352" y="96" width="16" height="16"/>
			<rect x="160" y="432" width="16" height="16"/>
			<rect x="160" y="400" width="16" height="16"/>
			<rect x="160" y="368" width="16" height="16"/>
			<rect x="224" y="432" width="16" height="16"/>
			<rect x="192" y="432" width="16" height="16"/>
		</g>
	</g>
</g>
</svg>